<svg enable-background="new 0 0 128 128" viewBox="0 0 128 128" xmlns="http://www.w3.org/2000/svg" xmlns:xlink="http://www.w3.org/1999/xlink"><linearGradient id="a"><stop offset=".0020129" stop-color="#9e9e9e"/><stop offset=".0407" stop-color="#a3a3a3"/><stop offset=".2703" stop-color="#bebebe"/><stop offset=".5048" stop-color="#d1d1d1"/><stop offset=".7451" stop-color="#dcdcdc"/><stop offset="1" stop-color="#e0e0e0"/></linearGradient><linearGradient id="b" gradientUnits="userSpaceOnUse" x1="30" x2="30" xlink:href="#a" y1="104.0599" y2="79.9999"/><linearGradient id="c" gradientUnits="userSpaceOnUse" x1="98" x2="98" xlink:href="#a" y1="104.0599" y2="79.9999"/><linearGradient id="d"><stop offset="0" stop-color="#f9a825"/><stop offset="1" stop-color="#ffb300"/></linearGradient><linearGradient id="e" gradientUnits="userSpaceOnUse" x1="64" x2="64" xlink:href="#d" y1="123.9999" y2="103.7599"/><linearGradient id="f" gradientUnits="userSpaceOnUse" x1="64" x2="64" xlink:href="#d" y1="19.8199" y2="3.9999"/><linearGradient id="g" gradientUnits="userSpaceOnUse" x1="30" x2="30" xlink:href="#d" y1="45.46" y2="33.48"/><linearGradient id="h" gradientUnits="userSpaceOnUse" x1="98" x2="98" xlink:href="#d" y1="45.46" y2="33.48"/><path d="m32 41h-4l24 39.1.1.2 1.7 2.8h2c.1-1 .3-2 .3-3z" fill="#8d6e63"/><path d="m31.4 42 23.6 38.3c0 .6-.1 1.1-.2 1.7h-.6l-1.4-2.3-.1-.2-22.9-37.5zm.6-1h-4l24 39.1.1.2 1.7 2.8h2c.1-1 .3-2 .3-3-.1-.1-24.1-39.1-24.1-39.1z" fill="#424242" opacity=".2"/><path d="m28 41h4l-24 39.1-.1.2-1.6 2.7h-2c-.2-1-.3-2-.3-3z" fill="#8d6e63"/><path d="m30.2 42-23 37.5-.1.2-1.4 2.3h-.6c0-.6-.1-1.2-.1-1.7l23.5-38.3zm1.8-1h-4l-24 39c0 1 .2 2 .3 3h2l1.7-2.8v-.1z" fill="#424242" opacity=".2"/><path d="m28 40.7h4v47.2h-4z" fill="#8d6e63"/><path d="m31 41.7v45.2h-2v-45.2zm1-1h-4v47.2h4z" fill="#424242" opacity=".2"/><path d="m56 80c0 14.2-13.2 24.1-26 24.1-12.9 0-26-9.9-26-24.1z" fill="url(#b)"/><path d="m52.8 83c-.7 4.6-3.1 8.8-6.9 12.1-4.4 3.8-10.2 6-15.9 6s-11.5-2.2-15.9-6c-3.8-3.3-6.2-7.5-6.9-12.1zm3.2-3h-52c0 14.2 13.1 24.1 26 24.1 12.8 0 26-9.9 26-24.1z" fill="#424242" opacity=".2"/><path d="m100 41h-4l24 39.1.1.2 1.7 2.8h2c.1-1 .3-2 .3-3-.1-.1-24.1-39.1-24.1-39.1z" fill="#8d6e63"/><path d="m99.4 42 23.6 38.3c0 .6-.1 1.1-.2 1.7h-.6l-1.4-2.3-.1-.2-22.9-37.5zm.6-1h-4l24 39.1.1.2 1.7 2.8h2c.1-1 .3-2 .3-3-.1-.1-24.1-39.1-24.1-39.1z" fill="#424242" opacity=".2"/><path d="m96 41h4l-24 39.1v.1l-1.7 2.8h-2c-.1-1-.3-2-.3-3z" fill="#8d6e63"/><path d="m98.2 42-23 37.5-.1.2-1.4 2.3h-.6c-.1-.6-.1-1.2-.2-1.7l23.7-38.3zm1.8-1h-4l-24 39c0 1 .2 2 .3 3h2l1.7-2.8.1-.2c-.1.1 23.9-39 23.9-39z" fill="#424242" opacity=".2"/><path d="m96 40.7h4v47.2h-4z" fill="#8d6e63"/><path d="m99 41.7v45.2h-2v-45.2zm1-1h-4v47.2h4z" fill="#424242" opacity=".2"/><path d="m124 80c0 14.2-13.2 24.1-26 24.1-12.9 0-26-9.9-26-24.1z" fill="url(#c)"/><path d="m120.8 83c-.7 4.6-3.1 8.8-6.9 12.1-4.4 3.8-10.2 6-15.8 6-5.7 0-11.5-2.2-15.9-6-3.8-3.3-6.2-7.5-6.9-12.1zm3.2-3h-52c0 14.2 13.1 24.1 26 24.1 12.8 0 26-9.9 26-24.1z" fill="#424242" opacity=".2"/><path d="m68 116v-83.9c2 1 3.8 2 5.8 3.3 7.1 4.6 15.2 7 23.2 7.5l-3-6.3c-6-.8-11.6-2.9-16.8-6.3-3.1-2-6.1-3.7-9.2-5v-13.4h-8v13.3c-3 1.3-6 3-9.2 5-5.2 3.5-10.8 5.6-16.8 6.4l-3 6.3c8-.5 16.1-2.9 23.2-7.5 2-1.3 3.8-2.3 5.8-3.3v83.9z" fill="#bdbdbd"/><path d="m66 13.9v11.3c0 .8.5 1.5 1.2 1.8 2.8 1.2 5.7 2.8 8.9 4.8 5.2 3.3 10.7 5.5 16.6 6.5l1 2.2c-6.8-.9-13.2-3.2-18.8-6.9-2-1.3-3.8-2.3-6-3.4-.3-.1-.6-.2-.9-.2-.4 0-.7.1-1.1.3-.6.4-.9 1-.9 1.7v82h-4v-81.9c0-.7-.3-1.3-.9-1.7-.3-.2-.7-.3-1.1-.3-.3 0-.6.1-.9.2-2.2 1-4 2.1-6 3.4-5.6 3.6-12 6-18.8 6.9l1-2.2c5.8-1 11.4-3.1 16.6-6.5 3.1-2 6-3.6 8.9-4.8.7-.3 1.2-1 1.2-1.8v-11.4zm2-2h-8v13.3c-3 1.3-6 3-9.2 5-5.2 3.5-10.8 5.6-16.8 6.4l-3 6.3c8-.5 16.1-2.9 23.2-7.5 2-1.3 3.8-2.3 5.8-3.3v83.9h8v-83.9c2 1 3.8 2 5.8 3.3 7.1 4.6 15.2 7 23.2 7.5l-3-6.3c-6-.8-11.6-2.9-16.8-6.3-3.1-2-6.1-3.7-9.2-5 0-.1 0-13.4 0-13.4z" fill="#424242" opacity=".2"/><path d="m92.7 124c2.3 0 3.9-2.3 3-4.4-3.5-8.4-16.3-15.8-31.7-15.8s-28.3 7.5-31.7 15.8c-.9 2.1.7 4.4 3 4.4z" fill="url(#e)"/><path d="m64 105.8c15.5 0 26.9 7.5 29.9 14.6.2.5 0 .9-.1 1.1s-.4.6-1 .6h-57.5c-.6 0-.9-.4-1-.6s-.3-.6-.1-1.1c2.8-7.1 14.3-14.6 29.8-14.6m0-2c-15.4 0-28.3 7.5-31.7 15.8-.9 2.1.7 4.4 3 4.4h57.5c2.3 0 3.9-2.3 3-4.4-3.5-8.4-16.4-15.8-31.8-15.8z" fill="#424242" opacity=".2"/><circle cx="64" cy="11.9" fill="url(#f)" r="7.9"/><circle cx="30" cy="39.5" fill="url(#g)" r="6"/><path d="m64 6c3.3 0 5.9 2.6 5.9 5.9s-2.7 5.9-5.9 5.9-5.9-2.6-5.9-5.9 2.7-5.9 5.9-5.9m0-2c-4.4 0-7.9 3.5-7.9 7.9s3.5 7.9 7.9 7.9 7.9-3.5 7.9-7.9-3.5-7.9-7.9-7.9z" fill="#424242" opacity=".2"/><path d="m30 35.5c2.2 0 4 1.8 4 4s-1.8 4-4 4-4-1.8-4-4 1.8-4 4-4m0-2c-3.3 0-6 2.7-6 6s2.7 6 6 6 6-2.7 6-6-2.7-6-6-6z" fill="#424242" opacity=".2"/><circle cx="98" cy="39.5" fill="url(#h)" r="6"/><path d="m98 35.5c2.2 0 4 1.8 4 4s-1.8 4-4 4-4-1.8-4-4 1.8-4 4-4m0-2c-3.3 0-6 2.7-6 6s2.7 6 6 6 6-2.7 6-6-2.7-6-6-6z" fill="#424242" opacity=".2"/></svg>